<svg width="28" height="28" viewBox="0 0 28 28" fill="none" xmlns="http://www.w3.org/2000/svg">
<path fill-rule="evenodd" clip-rule="evenodd" d="M14 0C21.7321 0 28 6.26792 28 14C28 21.7321 21.7321 28 14 28C6.26792 28 0 21.7321 0 14C0 6.26792 6.26792 0 14 0Z" fill="white"/>
<path fill-rule="evenodd" clip-rule="evenodd" d="M19.2494 15.5243V16.044C19.2494 16.3643 18.9869 16.6274 18.6661 16.6274C18.3453 16.6274 18.0828 16.3643 18.0828 16.044V15.5243C17.9019 15.3668 17.7911 15.1335 17.7911 14.8774C17.7911 14.3932 18.1819 14.0024 18.6661 14.0024C19.1503 14.0024 19.5411 14.3932 19.5411 14.8774C19.5411 15.1335 19.4308 15.3668 19.2494 15.5243ZM22.1544 13.5649C22.0325 11.7793 20.5742 10.4435 18.7594 10.5024H9.91609C9.59526 10.5024 9.33276 10.2393 9.33276 9.91903C9.33276 9.59762 9.59526 9.3357 9.91609 9.3357H18.8761C18.8178 8.18595 17.9428 6.93762 16.8344 6.76262C14.2042 6.30178 11.5728 6.30178 8.94192 6.76262C7.48359 6.99595 6.37526 8.43737 6.14192 9.87762C5.72776 12.6432 5.72776 15.4076 6.14192 18.1668C6.37526 19.6665 7.81609 21.1126 9.33276 21.2818C12.6053 21.6849 15.8778 21.6849 19.0919 21.2818C20.5503 21.1126 21.5069 19.7826 21.7986 18.3418C22.0903 16.7318 22.2128 15.116 22.1544 13.5649Z" fill="#00BEDC"/>
</svg>
